# xmcd CD database file
#
# Track frame offsets:
#	150
#	12542
#	25115
#	37820
#	49741
#	62626
#	73646
#	85399
#	97449
#	109278
#	123190
#	135982
#	147334
#	157965
#	169132
#	181861
#	193355
#	206068
#
# Disc length: 2947 seconds
#
# Revision: 0
# Processed by: cddbd v1.5.2PL0 Copyright (c) Steve Scherf et al.
# Submitted via: CDex 1.82
#
DISCID=030b8112
DTITLE=Ray Charles - THE SOLID GOLD Collection CD2
DYEAR=2005
DGENRE=Blues
TTITLE0=Honey, Honey
TTITLE1=Rockin' Chair Blues
TTITLE2=Blues Before Sunrise
TTITLE3=Can't You See Darling?
TTITLE4=Don't Put All Your Dreams in One Basket
TTITLE5=A Sentimental Blues
TTITLE6=How Long Blues
TTITLE7=I Love You, I Love You (I Will Never Let You Go)
TTITLE8=If I Give You My Love
TTITLE9=Late in The Evening Blues
TTITLE10=Lonely Boy
TTITLE11=She's On The Ball
TTITLE12=Th' Ego Song
TTITLE13=I'll Do Anything But Work
TTITLE14=The Snow Is Falling
TTITLE15=What Have I Done (Ray Charles' Blues)
TTITLE16=You Always Miss The Water (When The Well Runs Dry)
TTITLE17=I'm Wondering And Wondering
EXTD=YEAR: 2005
EXTT0=
EXTT1=
EXTT2=
EXTT3=
EXTT4=
EXTT5=
EXTT6=
EXTT7=
EXTT8=
EXTT9=
EXTT10=
EXTT11=
EXTT12=
EXTT13=
EXTT14=
EXTT15=
EXTT16=
EXTT17=
PLAYORDER=
